
        <svg xmlns="http://www.w3.org/2000/svg" xmlns:xlink="http://www.w3.org/1999/xlink" version="1.1" width="3187.5" height="2073.984013648404" viewBox="0 0 3187.5 2073.984013648404">
			
			<g transform="scale(9.375) translate(10, 10)">
				<defs id="SvgjsDefs1344"/><g id="SvgjsG1345" featureKey="symbolFeature-0" transform="matrix(1.1191709844559585,0,0,1.1191709844559585,104.76891189041532,-2.1264248437832056)" fill="#000"><rect xmlns="http://www.w3.org/2000/svg" x="47.4" y="1.9" width="5.1" height="5.1"/><rect xmlns="http://www.w3.org/2000/svg" x="47.4" y="93.3" width="5.1" height="5.1"/><rect xmlns="http://www.w3.org/2000/svg" x="13.9" y="78.7" width="5.1" height="5.1"/><rect xmlns="http://www.w3.org/2000/svg" x="79.5" y="78.7" width="5.1" height="5.1"/><rect xmlns="http://www.w3.org/2000/svg" x="13.9" y="15.9" width="5.1" height="5.1"/><rect xmlns="http://www.w3.org/2000/svg" x="79.5" y="15.9" width="5.1" height="5.1"/><rect xmlns="http://www.w3.org/2000/svg" x="1.1" y="47.2" width="5.1" height="5.1"/><rect xmlns="http://www.w3.org/2000/svg" x="93.8" y="47.2" width="5.1" height="5.1"/><path xmlns="http://www.w3.org/2000/svg" d="M10.4,24.5c-3.8,5.8-6.2,12.2-7.1,19.1l-0.1,0.6h3l0.1-0.5c1-6.7,3.5-13.1,7.3-18.7l0.6-0.8h-3.5L10.4,24.5  z"/><path xmlns="http://www.w3.org/2000/svg" d="M6.1,55.8L6,55.3H3.1l0.1,0.6c0.9,7.1,3.2,13.6,7,19.6l0.2,0.2h3.5l-0.6-0.8C9.5,69.2,7,62.6,6.1,55.8z"/><path xmlns="http://www.w3.org/2000/svg" d="M93.7,43.8l0.1,0.5h3l-0.1-0.6c-1-6.9-3.4-13.3-7.1-19.1l-0.2-0.2h-3.5l0.6,0.8  C90.2,30.7,92.7,37.1,93.7,43.8z"/><path xmlns="http://www.w3.org/2000/svg" d="M93.9,55.3l-0.1,0.5c-0.9,6.8-3.4,13.5-7.2,19.1L86,75.7h3.5l0.2-0.2c3.8-5.9,6.2-12.5,7-19.6l0.1-0.6  L93.9,55.3L93.9,55.3z"/><path xmlns="http://www.w3.org/2000/svg" d="M74.1,13.2l0.1,0.1h5l-1.3-1C71.6,7.5,64,4.4,56.1,3.4l-0.6-0.1v3L56,6.4C62.5,7.3,68.6,9.5,74.1,13.2z"/><path xmlns="http://www.w3.org/2000/svg" d="M21.9,12.3l-1.3,1h5l0.1-0.1C31.3,9.5,37.4,7.3,44,6.4l0.5-0.1v-3l-0.6,0.1C35.9,4.4,28.3,7.5,21.9,12.3z"/><path xmlns="http://www.w3.org/2000/svg" d="M74.6,86.9c-5.6,3.7-12,6.2-18.7,7.1l-0.5,0.1v3L56,97c8.1-1.1,15.8-4.2,22.3-9.2l1.3-1L74.6,86.9  L74.6,86.9z"/><path xmlns="http://www.w3.org/2000/svg" d="M25.3,86.9l-0.2-0.1h-4.9l1.3,1c6.5,5,14.3,8.1,22.4,9.2l0.6,0.1v-3L44,94C37.3,93.1,30.8,90.6,25.3,86.9z"/><polygon xmlns="http://www.w3.org/2000/svg" points="36.7,59.6 24.3,49.6 36.8,40.6 39.7,44.7 32.6,49.8 39.8,55.7 "/><polygon xmlns="http://www.w3.org/2000/svg" points="63.2,59.6 60.1,55.7 67.3,49.8 60.2,44.7 63.1,40.6 75.6,49.6 "/><rect xmlns="http://www.w3.org/2000/svg" x="47.7" y="34" transform="matrix(0.9452 0.3264 -0.3264 0.9452 19.1192 -13.6479)" width="5" height="32.4"/></g><g id="SvgjsG1346" featureKey="nameFeature-0" transform="matrix(1.3360945226324825,0,0,1.3360945226324825,-4.279644001532862,112.91683079942929)" fill="#000"><path d="M3.2031 40 l0 -28.711 l7.4414 0 l0 28.711 l-7.4414 0 z M50.58755859375 40 l-7.4414 0 l-1.875 -20.234 l-6.0742 20.234 l-4.9219 0 l-6.0742 -20.332 l-1.8945 20.332 l-7.4805 0 l2.5195 -28.711 l10.879 0 l4.4922 14.668 l4.5508 -14.668 l10.84 0 z M72.1119609375 40 l-8.1055 -11.523 l-1.7773 0 l0 11.523 l-7.4414 0 l0 -28.711 l7.4414 0 l0 10.742 l1.7188 0 l8.3984 -10.742 l9.043 0 l-10.996 13.75 l11.191 14.961 l-9.4727 0 z M84.00827578125 40 l0 -28.711 l11.113 0 c9.3945 0 13.965 5.625 13.965 14.355 c0 8.7109 -4.5703 14.355 -13.965 14.355 l-11.113 0 z M91.45017578125 33.4766 l3.2813 0 c4.5117 0 6.5234 -2.5977 6.5234 -7.832 c0 -5.2539 -2.0117 -7.8906 -6.5234 -7.8906 l-3.2813 0 l0 15.723 z M117.076178125 40 l-7.0313 -28.711 l7.7148 0 l4.8438 20.508 l5.918 -20.508 l6.1914 0 l5.8789 20.508 l4.8828 -20.508 l7.7148 0 l-7.0313 28.711 l-9.8438 0 l-4.7266 -14.961 l-4.668 14.961 l-9.8438 0 z M165.3603265625 40 l0 -28.711 l11.113 0 c9.3945 0 13.965 5.625 13.965 14.355 c0 8.7109 -4.5703 14.355 -13.965 14.355 l-11.113 0 z M172.8022265625 33.4766 l3.2813 0 c4.5117 0 6.5234 -2.5977 6.5234 -7.832 c0 -5.2539 -2.0117 -7.8906 -6.5234 -7.8906 l-3.2813 0 l0 15.723 z M211.51462890625 17.754 l-10 0 l0 4.6875 l8.9063 0 l0 6.4063 l-8.9063 0 l0 4.6289 l10 0 l0 6.5234 l-17.441 0 l0 -28.711 l17.441 0 l0 6.4648 z M234.77740625 11.289000000000001 l7.9297 0 l-10.645 28.711 l-8.3594 0 l-10.566 -28.711 l7.9297 0 l6.8555 20.176 z"/></g><g id="SvgjsG1347" featureKey="sloganFeature-0" transform="matrix(1.7394124982167545,0,0,1.7394124982167545,47.32006341955631,166.09698580560277)" fill="#000"><path d="M10.01 5.888999999999999 l0 2.5781 l-3.3496 0 l0 11.533 l-2.9004 0 l0 -11.533 l-3.3691 0 l0 -2.5781 l9.6191 0 z M22.680898437499998 8.467 l-5.2344 0 l0 3.2031 l4.6387 0 l0 2.5488 l-4.6387 0 l0 3.1934 l5.2344 0 l0 2.5879 l-8.1836 0 l0 -14.111 l8.1836 0 l0 2.5781 z M34.218778125 20.19531 c-4.1504 0 -7.2168 -2.8223 -7.2168 -7.2559 s3.0664 -7.2461 7.2168 -7.2461 c3.1445 0 5.6641 1.6113 6.6699 4.2871 l-2.7344 0.99609 c-0.625 -1.6406 -2.1191 -2.5879 -3.9355 -2.5879 c-2.4316 0 -4.2969 1.6992 -4.2969 4.5508 s1.8652 4.5605 4.2969 4.5605 c1.8164 0 3.3105 -0.95703 3.9355 -2.5977 l2.7344 0.99609 c-1.0059 2.6758 -3.5254 4.2969 -6.6699 4.2969 z M54.4583515625 5.888999999999999 l2.9297 0 l0 14.111 l-2.9297 0 l0 -5.8008 l-5.9668 0 l0 5.8008 l-2.9297 0 l0 -14.111 l2.9297 0 l0 5.7617 l5.9668 0 l0 -5.7617 z M78.3544953125 12.5488 c1.5918 0.43945 2.6563 1.4844 2.6563 3.4961 c0 2.3828 -1.4453 3.9551 -4.4238 3.9551 l-5.8105 0 l0 -14.111 l4.5703 0 c3.0469 0 4.6484 1.4648 4.6484 3.8672 c0 1.2402 -0.53711 2.2559 -1.6406 2.793 z M75.3759953125 8.32 l-1.7773 0 l0 3.3203 l1.9043 0 c1.25 0 1.7969 -0.74219 1.7969 -1.6992 c0 -0.9375 -0.61523 -1.6211 -1.9238 -1.6211 z M76.0399953125 17.4902 c1.582 0 2.1289 -0.84961 2.1289 -1.7676 c0 -0.9375 -0.53711 -1.8262 -2.1875 -1.8262 l-2.3828 0 l0 3.5938 l2.4414 0 z M88.8184 17.4121 l4.4238 0 l0 2.5879 l-7.3535 0 l0 -14.111 l2.9297 0 l0 11.523 z M103.9990515625 20.19531 c-4.1504 0 -7.2168 -2.832 -7.2168 -7.2559 c0 -4.4336 3.0664 -7.2461 7.2168 -7.2461 c4.1406 0 7.207 2.8125 7.207 7.2461 c0 4.4238 -3.0664 7.2559 -7.207 7.2559 z M103.9990515625 17.5098 c2.4316 0 4.2969 -1.709 4.2969 -4.5703 c0 -2.8516 -1.8652 -4.5508 -4.2969 -4.5508 s-4.2969 1.6992 -4.2969 4.5508 c0 2.8613 1.8652 4.5703 4.2969 4.5703 z M122.275403125 20.19531 c-4.0723 0 -7.0703 -2.8125 -7.0703 -7.2168 c0 -4.4629 3.0664 -7.2852 7.2168 -7.2852 c2.7246 0 4.9805 1.2012 6.2109 3.3203 l-2.5684 1.3672 c-0.74219 -1.4453 -2.0703 -2.1387 -3.6426 -2.1387 c-2.4414 0 -4.2773 1.6797 -4.2773 4.668 c0 2.8809 1.7188 4.7363 4.3848 4.7363 c1.8066 0 3.4668 -0.89844 3.8672 -2.959 l-3.8574 0 l0 -2.3535 l6.6309 0 l0 7.666 l-2.3047 0 l0 -1.9531 c-0.9082 1.3379 -2.4316 2.1484 -4.5898 2.1484 z"/></g>
			</g>
		</svg>
	