
        <svg xmlns="http://www.w3.org/2000/svg" xmlns:xlink="http://www.w3.org/1999/xlink" version="1.1" width="3181.8181818181815" 
        height="2282.7122834969123" viewBox="0 0 3181.8181818181815 2282.7122834969123">
			
			<g transform="scale(9.090909090909092) translate(10, 10)">
				<defs id="SvgjsDefs1377"></defs><g id="SvgjsG1378" featureKey="41S5F6-0" transform="matrix(0.2662848068568338,0,0,0.2662848068568338,84.48967736669073,-13.405916940832245)" fill="#a558c8"><metadata xmlns="http://www.w3.org/2000/svg">Created by potrace 1.14, written by Peter Selinger 2001-2017</metadata><g xmlns="http://www.w3.org/2000/svg" transform="translate(0.000000,600.000000) scale(0.100000,-0.100000)" fill="#a558c8" stroke="none"><path d="M3160 5494 c-413 -40 -538 -58 -1080 -155 -155 -28 -278 -43 -395 -50 -93 -6 -180 -14 -193 -20 -60 -24 -71 -138 -43 -444 30 -320 43 -400 117 -725 123 -538 223 -920 259 -995 31 -64 95 -145 114 -145 4 0 7 69 7 153 l-1 152 -107 325 c-219 667 -274 863 -318 1130 -37 217 -49 440 -28 480 l14 25 149 -3 c114 -3 223 4 450 27 611 62 636 63 949 62 323 -2 380 -8 585 -61 132 -35 148 -36 177 -12 36 29 51 64 53 123 3 86 -10 96 -144 114 -109 15 -478 27 -565 19z"></path><path d="M4148 5382 c-76 -39 -361 -236 -506 -349 -170 -133 -958 -880 -1028 -976 -40 -54 -84 -150 -84 -182 0 -17 16 -20 25 -5 3 5 38 25 78 43 110 52 170 105 368 327 266 298 500 549 635 680 252 245 578 477 637 454 7 -2 44 -64 83 -137 43 -78 131 -214 218 -334 211 -293 458 -646 481 -690 11 -21 66 -122 122 -224 114 -206 139 -266 189 -449 19 -69 43 -133 53 -143 41 -42 138 -29 199 26 31 29 28 56 -19 165 -151 353 -337 629 -790 1172 -303 363 -324 390 -409 525 -34 55 -72 108 -84 117 -34 28 -87 22 -168 -20z"></path><path d="M1182 4845 c-69 -78 -232 -321 -287 -428 -134 -257 -244 -526 -449 -1092 -42 -115 -115 -290 -163 -387 -98 -202 -98 -206 -19 -274 45 -39 299 -167 522 -262 239 -102 1292 -421 1444 -437 100 -11 240 21 184 41 -10 4 -39 23 -64 42 -100 76 -163 96 -540 176 -636 134 -854 189 -1060 264 -304 111 -479 200 -495 251 -4 14 17 56 71 142 45 73 114 207 169 328 270 601 329 722 482 975 140 233 165 266 303 410 101 106 110 118 110 153 -1 51 -16 76 -70 112 -64 43 -90 41 -138 -14z"></path><path d="M3692 3829 c-90 -15 -90 -20 0 -78 132 -87 164 -97 535 -176 668 -141 871 -192 1108 -281 262 -98 455 -200 455 -242 0 -10 -32 -69 -72 -132 -39 -63 -107 -194 -151 -290 -323 -714 -342 -753 -510 -1030 -131 -217 -174 -274 -324 -431 -87 -90 -94 -105 -72 -167 13 -39 93 -92 137 -92 27 0 39 9 77 58 95 119 244 352 302 472 149 305 205 442 389 950 80 218 139 364 195 473 43 87 79 170 79 184 0 51 -82 114 -262 201 -353 173 -466 215 -1008 377 -657 197 -766 222 -878 204z"></path><path d="M2881 3290 c-65 -23 -101 -46 -101 -63 0 -7 -22 -29 -49 -50 -64 -47 -98 -106 -118 -203 -14 -70 -14 -80 1 -111 9 -18 16 -44 16 -57 0 -56 32 -126 81 -180 59 -65 105 -95 151 -101 18 -2 60 -13 93 -25 70 -26 133 -22 217 11 75 29 218 175 241 245 27 81 32 159 13 188 -9 14 -16 38 -16 54 0 16 -7 49 -16 75 -28 81 -148 197 -204 197 -15 0 -47 9 -71 20 -58 26 -165 26 -238 0z"></path><path d="M4095 2688 l1 -153 106 -320 c102 -308 214 -669 257 -825 74 -273 124 -709 91 -796 l-11 -27 -147 6 c-116 5 -196 1 -382 -18 -711 -72 -676 -70 -1020 -67 -345 2 -354 3 -582 59 -140 35 -147 36 -172 20 -38 -25 -57 -60 -62 -115 -6 -62 8 -100 42 -112 42 -16 329 -41 474 -41 284 0 564 34 1227 152 211 37 325 52 449 58 192 11 209 18 232 92 22 72 2 407 -43 719 -18 123 -125 591 -230 1010 -79 313 -112 400 -179 473 -19 20 -39 37 -43 37 -4 0 -8 -69 -8 -152z"></path><path d="M466 2402 c-68 -39 -74 -57 -46 -134 41 -114 167 -366 234 -467 176 -269 310 -443 710 -920 101 -121 212 -266 256 -335 43 -67 87 -131 98 -143 33 -35 92 -31 177 13 110 56 477 317 610 434 194 171 844 793 908 869 46 56 86 134 94 187 6 37 5 38 -13 23 -10 -8 -59 -34 -107 -58 -107 -52 -149 -91 -446 -424 -117 -130 -289 -319 -384 -419 -316 -334 -728 -646 -793 -601 -6 5 -42 66 -81 138 -40 74 -132 216 -214 330 -183 253 -392 551 -446 635 -22 36 -92 160 -156 275 -113 208 -167 341 -207 513 -17 74 -44 103 -100 108 -36 3 -55 -2 -94 -24z"></path></g></g><g id="SvgjsG1379" featureKey="RGwKHf-0" transform="matrix(3.3639141637950796,0,0,3.3639141637950796,-5.785932457969893,137.211007837122)" fill="#0e2a39"><path d="M1.72 20 l0 -13.66 q0.5 -0.1 1.31 -0.1 t1.37 0.1 l0 13.66 q-0.56 0.1 -1.37 0.1 t-1.31 -0.1 z M7.4 19.96 l1.06 -13.6 q0.82 -0.14 1.77 -0.14 t1.73 0.14 l1.54 5.54 q0.62 2.48 0.76 3.42 l0.14 0 q0.14 -0.94 0.76 -3.42 l1.52 -5.54 q0.84 -0.14 1.76 -0.14 t1.76 0.14 l1.06 13.6 q-0.54 0.14 -1.29 0.14 t-1.25 -0.08 l-0.38 -6.42 q-0.16 -2.48 -0.16 -4.34 l-0.14 0 l-2.34 8.7 q-0.66 0.1 -1.37 0.1 t-1.37 -0.1 l-2.34 -8.7 l-0.14 0 q-0.04 2.46 -0.16 4.34 l-0.38 6.42 q-0.5 0.08 -1.25 0.08 t-1.29 -0.14 z M34.5 19.32 q-0.56 0.84 -1.8 0.84 q-0.7 0 -1.05 -0.36 t-0.63 -1.22 l-0.92 -2.62 q-0.36 -1.04 -0.83 -1.47 t-1.27 -0.43 q-0.2 0 -1.12 0.04 l0 5.9 q-0.52 0.1 -1.34 0.1 t-1.34 -0.1 l0 -13.66 q0.52 -0.1 1.34 -0.1 t1.34 0.1 l0 5.5 l0.8 -0.02 q0.32 0 0.48 -0.13 t0.36 -0.49 l2.22 -3.96 q0.3 -0.54 0.6 -0.77 t0.84 -0.23 t1.62 0.08 l0.16 0.2 l-2.72 4.86 q-0.46 0.82 -0.98 1.24 q0.94 0.2 1.44 0.77 t0.88 1.59 l0.94 2.68 q0.14 0.36 0.17 0.43 t0.13 0.31 q0.28 0.56 0.44 0.7 t0.24 0.22 z M44.82 19.1 q-0.6 0.52 -1.63 0.76 t-2.11 0.24 q-0.54 0 -1.67 -0.02 t-2.89 -0.06 l-0.14 -0.12 l0 -13.46 l0.14 -0.12 q1.16 -0.04 2.33 -0.06 t2.39 -0.02 q1.68 0 2.79 0.54 t1.77 1.49 t0.93 2.21 t0.27 2.7 q0 2 -0.45 3.45 t-1.73 2.47 z M43.72 9.96 q-0.6 -1.6 -2.48 -1.6 l-1.24 0 t-0.94 -0.02 l0 9.66 q0.38 -0.02 0.87 -0.02 t0.99 -0.02 t0.93 -0.08 t0.71 -0.2 q0.52 -0.28 0.85 -0.75 t0.51 -1.08 t0.25 -1.32 t0.07 -1.47 q0 -0.86 -0.11 -1.6 t-0.41 -1.5 z M52.17999999999999 16.58 l-0.02 1.24 l1.4 -0.04 l4.9 0 q0 0.64 -0.06 0.98 q-0.22 1.28 -1.72 1.28 l-5.62 0 q-0.72 0 -1.13 -0.43 t-0.41 -1.17 l0 -11.96 l0.14 -0.14 l8.34 0 q0.1 0.5 0.1 1.07 t-0.22 1.19 l-5.72 0 l0.02 1.38 l0 2.06 l1.3 -0.02 l3.38 0 q0.16 0.46 0.16 1.1 t-0.16 1.1 l-4.68 0 l0 2.36 z M73.77999999999999 19.1 q-0.6 0.52 -1.63 0.76 t-2.11 0.24 q-0.54 0 -1.67 -0.02 t-2.89 -0.06 l-0.14 -0.12 l0 -13.46 l0.14 -0.12 q1.16 -0.04 2.33 -0.06 t2.39 -0.02 q1.68 0 2.79 0.54 t1.77 1.49 t0.93 2.21 t0.27 2.7 q0 2 -0.45 3.45 t-1.73 2.47 z M72.67999999999999 9.96 q-0.6 -1.6 -2.48 -1.6 l-1.24 0 t-0.94 -0.02 l0 9.66 q0.38 -0.02 0.87 -0.02 t0.99 -0.02 t0.93 -0.08 t0.71 -0.2 q0.52 -0.28 0.85 -0.75 t0.51 -1.08 t0.25 -1.32 t0.07 -1.47 q0 -0.86 -0.11 -1.6 t-0.41 -1.5 z M81.13999999999999 16.58 l-0.02 1.24 l1.4 -0.04 l4.9 0 q0 0.64 -0.06 0.98 q-0.22 1.28 -1.72 1.28 l-5.62 0 q-0.72 0 -1.13 -0.43 t-0.41 -1.17 l0 -11.96 l0.14 -0.14 l8.34 0 q0.1 0.5 0.1 1.07 t-0.22 1.19 l-5.72 0 l0.02 1.38 l0 2.06 l1.3 -0.02 l3.38 0 q0.16 0.46 0.16 1.1 t-0.16 1.1 l-4.68 0 l0 2.36 z M94.39999999999999 17.7 l2.9 -11.36 q0.38 -0.1 1.12 -0.1 t1.28 0.18 l0.12 0.16 l-3.86 13.42 q-0.8 0.1 -1.83 0.1 t-1.47 -0.25 t-0.64 -0.99 l-3.5 -12.28 q0.9 -0.4 1.56 -0.4 t1 0.31 t0.52 1.01 l1.8 6.44 q0.42 1.54 0.82 3.54 q0.04 0.22 0.18 0.22 z"></path></g><g id="SvgjsG1380" featureKey="UxezYZ-0" transform="matrix(1.1179410100673146,0,0,1.1179410100673146,56.10564751179164,208.51594192837925)" fill="#a558c8"><path d="M10.24 6 l0 1.56 l-3.88 0 l0 12.44 l-1.66 0 l0 -12.44 l-3.9 0 l0 -1.56 l9.44 0 z M24.904 18.44 l6.66 0 l0 1.56 l-7.06 0 l-1.26 0 l0 -14 l1.66 0 l6.48 0 l0 1.56 l-6.48 0 l0 4.64 l5.04 0 l0 1.52 l-5.04 0 l0 4.72 z M56.228 18.5 c-1.28 1.1 -2.9 1.7 -4.7 1.7 c-3.64 0 -7.16 -2.96 -7.16 -7.2 s3.52 -7.2 7.16 -7.2 c1.78 0 3.38 0.6 4.64 1.66 l-1.02 1.16 c-0.98 -0.78 -2.24 -1.24 -3.5 -1.24 c-2.86 0 -5.56 2.32 -5.56 5.62 s2.7 5.62 5.56 5.62 c1.28 0 2.56 -0.48 3.54 -1.28 z M77.912 6 l1.66 0 l0 14 l-1.66 0 l0 -6.12 l-7.12 0 l0 6.12 l-1.66 0 l0 -14 l1.66 0 l0 6.32 l7.12 0 l0 -6.32 z M116.72 12.3 c1.84 0.42 3.04 1.94 3.04 3.7 c0 2.46 -1.6 4 -5.06 4 l-4.72 0 l0 -14 l4.78 0 c2.74 0 4.1 1.56 4.1 3.38 c0 1.34 -0.76 2.42 -2.14 2.92 z M114.64 7.48 l-3 0 l0 4.28 l3 0 c1.6 0 2.58 -0.88 2.58 -2.16 c0 -1.32 -0.92 -2.12 -2.58 -2.12 z M114.64 18.52 c2.4 0 3.46 -0.98 3.46 -2.66 c0 -1.46 -1.06 -2.72 -3.36 -2.72 l-3.1 0 l0 5.38 l3 0 z M134.324 18.44 l6.28 0 l0 1.56 l-7.94 0 l0 -14 l1.66 0 l0 12.44 z M160.468 5.800000000000001 c3.64 0 7.16 2.96 7.16 7.2 s-3.52 7.2 -7.16 7.2 c-3.66 0 -7.16 -2.96 -7.16 -7.2 s3.5 -7.2 7.16 -7.2 z M160.468 18.62 c2.74 0 5.44 -2.32 5.44 -5.62 s-2.7 -5.62 -5.44 -5.62 c-2.76 0 -5.44 2.32 -5.44 5.62 s2.68 5.62 5.44 5.62 z M193.992 12.96 c0.3 4.48 -2.76 7.24 -6.4 7.24 c-3.74 0 -7.16 -2.96 -7.16 -7.2 s3.5 -7.2 7.16 -7.2 c1.76 0 3.36 0.6 4.62 1.66 l-1.02 1.16 c-0.98 -0.78 -2.24 -1.24 -3.5 -1.24 c-2.86 0 -5.54 2.32 -5.54 5.62 s2.6 5.62 5.44 5.62 c2.48 0 4.46 -1.34 4.84 -4.22 l-4.08 0 l0 -1.44 l5.64 0 z"></path></g>
			</g>
		</svg>
	